<svg id="visual" viewBox="0 0 900 600" width="900" height="600" xmlns="http://www.w3.org/2000/svg" xmlns:xlink="http://www.w3.org/1999/xlink" version="1.1"><rect x="0" y="0" width="900" height="600" fill="#afffff"></rect><path d="M0 379L21.5 381.8C43 384.7 86 390.3 128.8 387.5C171.7 384.7 214.3 373.3 257.2 375.2C300 377 343 392 385.8 402.3C428.7 412.7 471.3 418.3 514.2 419C557 419.7 600 415.3 642.8 418.8C685.7 422.3 728.3 433.7 771.2 437.3C814 441 857 437 878.5 435L900 433L900 601L878.5 601C857 601 814 601 771.2 601C728.3 601 685.7 601 642.8 601C600 601 557 601 514.2 601C471.3 601 428.7 601 385.8 601C343 601 300 601 257.2 601C214.3 601 171.7 601 128.8 601C86 601 43 601 21.5 601L0 601Z" fill="#48153e"></path><path d="M0 433L21.5 440.8C43 448.7 86 464.3 128.8 461.5C171.7 458.7 214.3 437.3 257.2 429.8C300 422.3 343 428.7 385.8 425C428.7 421.3 471.3 407.7 514.2 402.7C557 397.7 600 401.3 642.8 408.3C685.7 415.3 728.3 425.7 771.2 431.5C814 437.3 857 438.7 878.5 439.3L900 440L900 601L878.5 601C857 601 814 601 771.2 601C728.3 601 685.7 601 642.8 601C600 601 557 601 514.2 601C471.3 601 428.7 601 385.8 601C343 601 300 601 257.2 601C214.3 601 171.7 601 128.8 601C86 601 43 601 21.5 601L0 601Z" fill="#351539"></path><path d="M0 504L21.5 497C43 490 86 476 128.8 475C171.7 474 214.3 486 257.2 484.8C300 483.7 343 469.3 385.8 463.2C428.7 457 471.3 459 514.2 457C557 455 600 449 642.8 451.8C685.7 454.7 728.3 466.3 771.2 465.7C814 465 857 452 878.5 445.5L900 439L900 601L878.5 601C857 601 814 601 771.2 601C728.3 601 685.7 601 642.8 601C600 601 557 601 514.2 601C471.3 601 428.7 601 385.8 601C343 601 300 601 257.2 601C214.3 601 171.7 601 128.8 601C86 601 43 601 21.5 601L0 601Z" fill="#241431"></path><path d="M0 514L21.5 516.8C43 519.7 86 525.3 128.8 528.8C171.7 532.3 214.3 533.7 257.2 535.3C300 537 343 539 385.8 536.8C428.7 534.7 471.3 528.3 514.2 521.7C557 515 600 508 642.8 503C685.7 498 728.3 495 771.2 501.3C814 507.7 857 523.3 878.5 531.2L900 539L900 601L878.5 601C857 601 814 601 771.2 601C728.3 601 685.7 601 642.8 601C600 601 557 601 514.2 601C471.3 601 428.7 601 385.8 601C343 601 300 601 257.2 601C214.3 601 171.7 601 128.8 601C86 601 43 601 21.5 601L0 601Z" fill="#161027"></path><path d="M0 532L21.5 536C43 540 86 548 128.8 552C171.7 556 214.3 556 257.2 551C300 546 343 536 385.8 537.2C428.7 538.3 471.3 550.7 514.2 558.2C557 565.7 600 568.3 642.8 566.8C685.7 565.3 728.3 559.7 771.2 559.5C814 559.3 857 564.7 878.5 567.3L900 570L900 601L878.5 601C857 601 814 601 771.2 601C728.3 601 685.7 601 642.8 601C600 601 557 601 514.2 601C471.3 601 428.7 601 385.8 601C343 601 300 601 257.2 601C214.3 601 171.7 601 128.8 601C86 601 43 601 21.5 601L0 601Z" fill="#09081c"></path></svg>