<svg id="visual" viewBox="0 0 900 400" width="900" height="400" xmlns="http://www.w3.org/2000/svg" xmlns:xlink="http://www.w3.org/1999/xlink" version="1.1"><rect x="0" y="0" width="900" height="400" fill="#afffff"></rect><path d="M0 223L21.5 225.3C43 227.7 86 232.3 128.8 230C171.7 227.7 214.3 218.3 257.2 219.7C300 221 343 233 385.8 241.3C428.7 249.7 471.3 254.3 514.2 255C557 255.7 600 252.3 642.8 255C685.7 257.7 728.3 266.3 771.2 269.3C814 272.3 857 269.7 878.5 268.3L900 267L900 401L878.5 401C857 401 814 401 771.2 401C728.3 401 685.7 401 642.8 401C600 401 557 401 514.2 401C471.3 401 428.7 401 385.8 401C343 401 300 401 257.2 401C214.3 401 171.7 401 128.8 401C86 401 43 401 21.5 401L0 401Z" fill="#48153e"></path><path d="M0 267L21.5 273.2C43 279.3 86 291.7 128.8 289.3C171.7 287 214.3 270 257.2 264C300 258 343 263 385.8 260C428.7 257 471.3 246 514.2 242C557 238 600 241 642.8 246.7C685.7 252.3 728.3 260.7 771.2 265.3C814 270 857 271 878.5 271.5L900 272L900 401L878.5 401C857 401 814 401 771.2 401C728.3 401 685.7 401 642.8 401C600 401 557 401 514.2 401C471.3 401 428.7 401 385.8 401C343 401 300 401 257.2 401C214.3 401 171.7 401 128.8 401C86 401 43 401 21.5 401L0 401Z" fill="#351539"></path><path d="M0 323L21.5 317.3C43 311.7 86 300.3 128.8 299.5C171.7 298.7 214.3 308.3 257.2 307.5C300 306.7 343 295.3 385.8 290.3C428.7 285.3 471.3 286.7 514.2 285C557 283.3 600 278.7 642.8 281C685.7 283.3 728.3 292.7 771.2 292.2C814 291.7 857 281.3 878.5 276.2L900 271L900 401L878.5 401C857 401 814 401 771.2 401C728.3 401 685.7 401 642.8 401C600 401 557 401 514.2 401C471.3 401 428.7 401 385.8 401C343 401 300 401 257.2 401C214.3 401 171.7 401 128.8 401C86 401 43 401 21.5 401L0 401Z" fill="#241431"></path><path d="M0 331L21.5 333.2C43 335.3 86 339.7 128.8 342.5C171.7 345.3 214.3 346.7 257.2 348.2C300 349.7 343 351.3 385.8 349.5C428.7 347.7 471.3 342.3 514.2 337C557 331.7 600 326.3 642.8 322.5C685.7 318.7 728.3 316.3 771.2 321.3C814 326.3 857 338.7 878.5 344.8L900 351L900 401L878.5 401C857 401 814 401 771.2 401C728.3 401 685.7 401 642.8 401C600 401 557 401 514.2 401C471.3 401 428.7 401 385.8 401C343 401 300 401 257.2 401C214.3 401 171.7 401 128.8 401C86 401 43 401 21.5 401L0 401Z" fill="#161027"></path><path d="M0 345L21.5 348.3C43 351.7 86 358.3 128.8 361.7C171.7 365 214.3 365 257.2 360.8C300 356.7 343 348.3 385.8 349.2C428.7 350 471.3 360 514.2 366.2C557 372.3 600 374.7 642.8 373.5C685.7 372.3 728.3 367.7 771.2 367.5C814 367.3 857 371.7 878.5 373.8L900 376L900 401L878.5 401C857 401 814 401 771.2 401C728.3 401 685.7 401 642.8 401C600 401 557 401 514.2 401C471.3 401 428.7 401 385.8 401C343 401 300 401 257.2 401C214.3 401 171.7 401 128.8 401C86 401 43 401 21.5 401L0 401Z" fill="#09081c"></path></svg>